<svg width="185" height="32" viewBox="0 0 185 32" fill="none" xmlns="http://www.w3.org/2000/svg">
<rect width="185" height="32" rx="8" fill="white"/>
<path d="M140.468 17.524C142.265 16.8669 143.673 15.8736 144.651 14.5747C145.672 13.2146 146.139 10.846 146.139 9.21472C146.139 7.14408 145.412 5.37525 143.978 3.95407C142.575 2.55964 140.732 1.63893 138.503 1.21869C137.031 0.939804 135.624 0.806091 131.598 0.806091H123.912V31.4645H128.692V18.5249H131.613L141.535 31.4645H147.806L137.643 18.269C138.472 18.0856 139.73 17.7914 140.472 17.5202M140.606 11.7935C140.086 12.4582 139.34 12.951 138.4 13.2605C137.406 13.5852 135.827 13.7495 133.708 13.7495L128.695 13.7151V5.58155H133.838C136.022 5.58155 137.585 5.73436 138.499 6.03235C139.379 6.3227 140.063 6.78496 140.598 7.44971C141.122 8.10299 141.375 8.7983 141.375 9.58911C141.375 10.3799 141.126 11.1287 140.606 11.7935Z" fill="#808080"/>
<path d="M180.127 4.53477C176.969 1.52433 172.992 0 168.312 0C165.421 0 162.691 0.702947 160.206 2.08592C157.717 3.47271 155.724 5.41346 154.279 7.85467C152.838 10.3035 152.104 12.9931 152.104 15.8583C152.104 20.1601 153.709 23.8773 156.875 26.9068C160.038 29.9287 163.964 31.4607 168.553 31.4607C173.141 31.4607 176.984 29.9211 180.138 26.8839C183.3 23.8429 184.903 20.0875 184.903 15.717C184.903 11.3465 183.293 7.54522 180.127 4.53095M180.226 15.7093C180.226 17.822 179.706 19.7666 178.693 21.4934C177.68 23.2164 176.242 24.5955 174.426 25.5888C172.602 26.5859 170.591 27.094 168.449 27.094C165.245 27.094 162.466 25.9976 160.198 23.8276C157.935 21.6691 156.787 18.9796 156.787 15.8431C156.787 13.7189 157.304 11.7667 158.332 10.0437C159.357 8.31694 160.798 6.9225 162.626 5.90628C164.454 4.88243 166.412 4.36668 168.453 4.36668C170.495 4.36668 172.522 4.88625 174.376 5.91011C176.227 6.93014 177.684 8.30929 178.701 10.0017C179.718 11.6941 180.23 13.6158 180.23 15.717" fill="#808080"/>
<path d="M71.7769 0.809875L59.3884 23.3921L47.084 0.809875H44.9313L40.1021 31.4645H44.9428L47.9558 12.3703L58.3598 31.4645H60.4322L70.9128 12.4085L73.8264 31.4645H78.6633L73.9985 0.809875H71.7769Z" fill="#808080"/>
<path d="M15.9713 0.809875L0 31.4645H5.3263L9.97965 22.5745H24.3221L29.0366 31.4645H34.6458L18.4452 0.809875H15.9713ZM21.917 17.8105H12.4803L17.2101 8.77916L21.917 17.8105Z" fill="#808080"/>
<path d="M99.8267 0.809875L83.8555 31.4645H89.1818L93.8351 22.5745H108.178L112.892 31.4645H118.501L102.301 0.809875H99.8267ZM105.772 17.8105H96.3358L101.066 8.77916L105.772 17.8105Z" fill="#808080"/>
</svg>
