<svg width="115" height="116" viewBox="0 0 115 116" fill="none" xmlns="http://www.w3.org/2000/svg">
<rect width="115" height="116" rx="8" fill="white"/>
<path d="M64.7091 74.1854C65.9245 74.1854 67.58 73.9815 68.7608 73.643C69.1317 73.5417 69.2342 73.4404 69.2342 73.0673V62.9491C69.2342 62.7466 69.0999 62.6106 68.8978 62.6106H67.007C66.8035 62.6106 66.6692 62.7466 66.6692 62.9491V71.8826C66.2304 71.9839 65.4871 72.0852 64.8794 72.0852C63.1906 72.0852 62.5498 71.3416 62.5498 69.3774V62.9477C62.5498 62.7452 62.4155 62.6093 62.212 62.6093H60.3211C60.1191 62.6093 59.9834 62.7452 59.9834 62.9477V69.6812C59.9834 72.4902 61.2334 74.1826 64.7105 74.1826" fill="#808080"/>
<path d="M72.306 73.9814H74.1969C74.399 73.9814 74.5346 73.8455 74.5346 73.643V59.2273C74.5346 58.9568 74.4003 58.7875 74.0958 58.8555L72.306 59.1607C72.0693 59.194 71.9683 59.2952 71.9683 59.5671V73.643C71.9683 73.8455 72.1039 73.9814 72.306 73.9814Z" fill="#808080"/>
<path d="M80.9157 76.8574L79.1273 77.1612C78.8906 77.1945 78.7896 77.2958 78.7896 77.5677V91.6449C78.7896 91.8474 78.9238 91.9834 79.1273 91.9834H81.0168C81.2202 91.9834 81.3559 91.8488 81.3559 91.6449V77.2292C81.3559 76.9587 81.2202 76.7895 80.9157 76.8574Z" fill="#808080"/>
<path d="M100.029 85.5201L98.4083 85.0471C97.4282 84.7766 97.024 84.5394 97.024 83.6932C97.024 82.779 97.7328 82.5099 99.117 82.5099C99.9946 82.5099 101.177 82.7471 101.48 82.7804C101.75 82.8151 101.851 82.7138 101.953 82.4433L102.189 81.6651C102.324 81.2587 102.189 81.1241 101.953 81.0229C101.143 80.7191 99.7925 80.4139 98.6782 80.4139C96.0772 80.4139 94.6266 81.7678 94.6266 83.7307C94.6266 85.4216 95.3007 86.3691 96.923 86.8435L98.7806 87.3845C99.9295 87.6897 100.13 88.0282 100.13 88.7717C100.13 89.7525 99.4547 90.0909 97.9362 90.0909C96.9576 90.0909 95.6066 89.8537 95.3021 89.8204C95.0321 89.7871 94.9311 89.8884 94.83 90.1589L94.5933 90.9371C94.4591 91.3436 94.5933 91.4781 94.83 91.5794C95.6412 91.8832 97.0919 92.1884 98.3764 92.1884C101.246 92.1884 102.597 90.8678 102.597 88.737C102.597 86.469 101.382 85.928 100.031 85.5215" fill="#808080"/>
<path d="M94.7282 73.0673V62.9491C94.7282 62.7466 94.5926 62.6106 94.3905 62.6106H92.4996C92.2975 62.6106 92.1619 62.7466 92.1619 62.9491V71.8826C91.7231 71.9839 90.9798 72.0852 90.3721 72.0852C88.6833 72.0852 88.0424 71.3416 88.0424 69.3774V62.9477C88.0424 62.7452 87.9068 62.6093 87.7047 62.6093H85.8138C85.6117 62.6093 85.4761 62.7452 85.4761 62.9477V69.6812C85.4761 72.4902 86.726 74.1826 90.2032 74.1826C91.4185 74.1826 93.0727 73.9787 94.2548 73.6402C94.6258 73.5389 94.7282 73.4377 94.7282 73.0645" fill="#808080"/>
<path d="M90.4387 85.419H86.0493V85.1485C86.0493 83.3881 86.7581 82.4074 88.2779 82.4074C89.7978 82.4074 90.4387 83.3215 90.4387 85.1485V85.419ZM88.1769 80.4112C85.4417 80.4112 83.4844 82.2728 83.4844 85.5549V87.1113C83.4844 90.596 85.3074 92.1871 88.9202 92.1871C90.2034 92.1871 91.2499 91.9152 91.7911 91.7473C92.0943 91.6461 92.2645 91.5101 92.3323 91.2396L92.5677 90.3587C92.6687 89.9537 92.4666 89.851 92.1289 89.8857C91.7579 89.919 90.3391 90.0882 89.5293 90.0882C87.4017 90.0882 86.0521 89.7165 86.0521 87.3804V87.1779H92.5344C92.7379 87.1779 92.8722 87.1099 92.8722 86.7049V85.5549C92.8722 82.1702 91.3869 80.4112 88.1783 80.4112" fill="#808080"/>
<path d="M103 62.4083C100.874 62.4083 99.422 62.6108 97.6654 63.0505C97.3955 63.1185 97.2944 63.2877 97.2944 63.6262V73.6417C97.2944 73.8443 97.4287 73.9802 97.6322 73.9802H99.523C99.7251 73.9802 99.8608 73.8443 99.8608 73.6417V64.7429C100.671 64.5737 101.651 64.5057 102.494 64.5057C102.865 64.5057 103 64.3711 103.101 64.066L103.44 62.8813C103.507 62.6108 103.373 62.4083 103 62.4083Z" fill="#808080"/>
<path d="M83.8201 72.3906C83.9226 71.9842 83.7191 71.8829 83.517 71.8829C83.2138 71.8829 82.5716 72.0174 81.5251 72.0174C80.3762 72.0174 79.7685 71.4432 79.7685 70.056V64.7763H83.0782C83.2803 64.7763 83.4159 64.6418 83.4159 64.4378V62.948C83.4159 62.7455 83.2803 62.6095 83.0782 62.6095H79.7685V59.2262C79.7685 58.9557 79.6342 58.7864 79.3297 58.8544L77.5399 59.1596C77.3046 59.1929 77.2021 59.2941 77.2021 59.566V70.1572C77.2021 72.5931 78.1144 74.1842 80.9839 74.1842C81.9971 74.1842 82.6394 73.9803 83.0104 73.8458C83.3135 73.7445 83.4838 73.6086 83.5502 73.3381L83.8201 72.3906Z" fill="#808080"/>
<path d="M111.07 71.8495C110.664 71.9508 109.787 72.052 109.214 72.052C107.593 72.052 106.816 71.2058 106.816 69.0737V67.5173C106.816 65.3852 107.593 64.5404 109.214 64.5404C109.787 64.5404 110.666 64.6416 111.07 64.7429V71.8481V71.8495ZM113.163 62.9493C111.88 62.6108 110.226 62.4083 109.144 62.4083C105.802 62.4083 104.181 64.4044 104.181 67.484V69.1084C104.181 72.5264 105.802 74.1841 109.144 74.1841C110.226 74.1841 111.88 73.9802 113.163 73.6417C113.534 73.5405 113.636 73.4392 113.636 73.0661V63.5236C113.636 63.1504 113.535 63.0491 113.163 62.9479" fill="#808080"/>
<path d="M111.07 89.851C110.664 89.9536 109.787 90.0549 109.214 90.0549C107.593 90.0549 106.816 89.2087 106.816 87.0766V85.5201C106.816 83.388 107.593 82.5418 109.214 82.5418C109.787 82.5418 110.666 82.6445 111.07 82.7458V89.8523V89.851ZM113.163 80.9507C111.88 80.6123 110.226 80.4097 109.144 80.4097C105.802 80.4097 104.181 82.4073 104.181 85.4855V87.1099C104.181 90.5279 105.802 92.1856 109.144 92.1856C110.226 92.1856 111.88 91.9817 113.163 91.6446C113.534 91.5433 113.636 91.4421 113.636 91.0703V81.5278C113.636 81.156 113.535 81.0534 113.163 80.9521" fill="#808080"/>
<path d="M52.9244 80.4445L51.1346 80.7483C50.8979 80.783 50.7969 80.8843 50.7969 81.1548V91.5768C50.7969 91.7793 50.9311 91.9832 51.1346 91.9832H53.0933C53.2276 91.9832 53.3632 91.7793 53.3632 91.5768V80.8163C53.3632 80.5458 53.229 80.3766 52.9244 80.4445Z" fill="#808080"/>
<path d="M52.9573 76.8572L51.101 77.161C50.8657 77.1943 50.7646 77.2956 50.7646 77.5675V79.2265C50.7646 79.497 50.8989 79.6663 51.2034 79.5983L53.0611 79.2945C53.2978 79.2612 53.3988 79.1586 53.3988 78.8881V77.2304C53.3988 76.9599 53.2632 76.7906 52.96 76.8586" fill="#808080"/>
<path d="M57.787 73.3047L58.0569 72.3905C58.1593 71.984 57.9559 71.8828 57.7538 71.8828C57.4506 71.8828 56.4706 72.0173 55.4241 72.0173C53.7354 72.0173 52.7899 71.443 52.7899 69.243V67.3481C52.7899 65.1494 53.7021 64.5737 55.3231 64.5737C56.3363 64.5737 56.9094 64.7082 57.1461 64.7082C57.416 64.7082 57.5171 64.607 57.6181 64.3365L57.8548 63.4903C57.9905 63.0838 57.8548 62.9146 57.6181 62.848C57.2471 62.7134 56.1328 62.4083 55.0518 62.4083C51.7421 62.4083 50.1558 64.3365 50.1558 67.3481V69.243C50.1558 72.5597 51.7767 74.1841 54.8829 74.1841C56.2685 74.1841 56.8762 73.9469 57.2471 73.8124C57.5503 73.7111 57.7192 73.5752 57.787 73.3047Z" fill="#808080"/>
<path d="M60.1842 80.4097C58.9689 80.4097 57.3133 80.6136 56.1326 80.9507C55.7616 81.052 55.6592 81.1546 55.6592 81.5264V91.6446C55.6592 91.8471 55.7948 91.9831 55.9969 91.9831H57.8878C58.0913 91.9831 58.2255 91.8485 58.2255 91.6446V82.7111C58.6657 82.6098 59.4077 82.5086 60.0153 82.5086C61.7041 82.5086 62.345 83.2535 62.345 85.215V91.6446C62.345 91.8471 62.4806 91.9831 62.6827 91.9831H64.5736C64.7757 91.9831 64.91 91.8485 64.91 91.6446V84.9112C64.91 82.1021 63.6614 80.4097 60.1828 80.4097" fill="#808080"/>
<path d="M69.6732 86.9755V85.519C69.6732 84.0305 69.9432 82.5407 72.0707 82.5407C72.5441 82.5407 73.4563 82.6087 73.9284 82.7446V89.7485C73.3207 89.8165 72.713 89.8845 72.2064 89.8845C70.1134 89.8845 69.6732 88.8011 69.6732 86.9741M76.0213 80.9843C74.9402 80.6458 73.185 80.4086 72.0029 80.4086C68.761 80.4086 67.0391 82.3035 67.0391 85.4843V87.0074C67.0391 90.3242 68.7264 92.0152 71.7994 92.0152C72.5538 92.0152 73.3068 91.8973 73.927 91.7447V92.0152C73.927 93.5383 73.1504 93.9434 71.6651 93.9434C69.9432 93.9434 68.8967 93.7076 68.4233 93.6396C68.1534 93.6063 68.0177 93.7409 67.9499 94.0114L67.7478 94.8909C67.6135 95.2973 67.7478 95.4665 67.9845 95.5345C68.9977 95.8383 70.5508 96.1102 72.1039 96.1102C74.7367 96.1102 76.4933 94.8576 76.4933 91.8113V81.5586C76.4933 81.1868 76.3923 81.0855 76.0199 80.9829" fill="#808080"/>
<path d="M37.7877 78.7826C35.4968 78.4178 32.99 78.1029 29.0297 75.4575C29.0297 75.4575 28.238 74.911 27.604 75.5283C27.604 75.5283 24.9809 78.4039 19.1201 81.2796C18.3269 81.668 18.2065 82.4379 18.3809 83.1676C18.8211 85.0195 19.6212 87.6204 19.2959 88.0713C18.8792 88.6497 14.1189 88.7219 13.3285 89.7637C13.1375 90.0161 12.4301 91.7224 13.6455 94.2082C14.6033 96.1683 16.0512 97.1754 16.6229 97.5139C16.7766 97.6054 16.8458 97.7511 16.807 97.9092C16.7724 98.0507 16.4347 99.6765 16.3239 100.087C16.2506 100.36 15.9973 100.498 15.7024 100.519C15.3494 100.545 14.0469 100.416 12.7983 100.073C12.617 100.023 12.3221 100.032 12.5602 100.373C12.8703 100.814 13.6233 101.638 14.7182 101.933C16.9233 102.527 17.5504 102.15 17.9892 101.258C18.3394 100.546 18.8751 98.41 19.0246 97.3863C19.0772 97.0284 18.9235 96.7038 18.6314 96.5332C17.3469 95.7785 14.2822 93.8115 14.8788 91.1855C15.0671 90.3532 18.9138 90.2214 20.161 89.9884C21.4442 89.7484 22.0975 89.3198 21.5951 87.2279C21.2684 85.8712 20.8531 84.4299 20.6718 83.5712C20.5638 83.0594 20.7493 82.5849 21.2919 82.2645C21.7985 81.9649 22.499 81.5695 23.288 81.0965C24.0092 81.2199 25.1899 81.4322 26.0384 81.6444C26.7125 81.8137 27.0074 82.0245 27.0074 83.0275C27.0074 84.0304 27.0032 85.5383 27.0254 86.2194C27.0614 87.2778 27.6151 88.2308 28.8816 88.2308C30.1482 88.2308 30.832 88.2044 31.3608 88.2044C31.8895 88.2044 33.3596 88.1309 34.4434 86.9546C34.4933 86.8991 34.6774 86.8228 34.8213 86.8977C35.2643 87.1252 36.499 87.9589 37.1358 88.7843C37.1358 88.7843 37.0638 89.9593 35.3556 91.6586C35.2587 91.7543 35.2366 91.9152 35.5674 91.8777C36.3052 91.7945 37.8749 91.3464 38.5311 90.0314C39.4806 88.1268 38.6778 87.3319 38.0092 86.7687C37.4389 86.2874 36.5433 85.4439 35.4775 84.9598C35.0816 84.7795 34.2912 84.9321 33.9853 85.2664C33.5354 85.7574 32.5387 86.4691 31.4563 86.4691H30.1551C29.4851 86.4691 28.9508 86.5509 28.901 85.4231C28.8526 84.3175 28.8526 83.0746 28.8526 82.1216C28.8526 81.1686 28.7404 80.4223 27.5791 80.0686C26.9396 79.8744 26.2267 79.6746 25.7145 79.5331C26.6503 78.8756 27.5708 78.1459 28.3432 77.3649C28.3432 77.3649 33.6115 80.3169 39.5983 80.5694C39.6454 80.5707 39.7201 80.5208 39.68 80.4334C39.5014 80.0436 38.9131 78.9671 37.7863 78.7868" fill="#808080"/>
<path d="M31.0787 90.3533H26.4859C25.8519 90.3533 25.755 90.2382 25.5446 89.109C25.3328 87.9798 24.9812 86.4275 24.7002 85.5814C24.4178 84.7352 23.8558 84.1345 22.7637 84.4522C22.7637 84.4522 23.6094 88.7553 23.8544 90.2368C24.1022 91.7183 24.206 92.0346 25.8256 92.0346H33.6963C33.7863 92.0346 33.8264 91.9777 33.7849 91.9083C33.5675 91.5421 32.8588 90.3505 31.0787 90.3505" fill="#808080"/>
<path d="M11.8447 94.774C11.1388 93.4174 10.2792 91.7541 9.73101 90.6568C9.20086 89.5943 10.5006 88.8868 11.608 87.5121C12.5438 86.351 12.0607 85.2232 11.8876 84.8986C11.8558 84.839 11.7755 84.8653 11.7423 84.8986C10.0175 86.6354 9.12334 87.4691 6.87536 87.9477C5.96731 88.1405 4.09583 88.2404 2.69085 86.4661C1.19865 84.5823 2.17315 81.9078 3.47293 80.4332C7.73219 75.6003 9.64658 72.8509 9.42233 67.2036C9.24792 62.8312 4.61492 58.7417 1.60838 56.5014C1.51841 56.4334 1.31908 56.4168 1.30939 56.6124C1.28032 57.2297 1.40075 58.6779 2.92616 60.0263C4.83363 61.7117 6.9418 64.1906 7.40413 66.9733C7.92183 70.0903 6.78123 74.1534 2.76698 78.4565C0.626967 80.7523 -0.11913 82.6555 0.0926568 84.7724C0.203395 85.8905 0.614509 86.7741 1.15989 87.4275C3.12134 89.9494 5.94239 89.7496 7.16328 89.4958C6.95426 89.93 7.06915 90.5597 7.94121 91.7749C9.35174 93.7392 11.3824 97.744 11.8364 98.5805C11.9153 98.7261 11.9887 98.6401 12.0219 98.5888C12.8123 97.3653 12.6434 96.318 11.8406 94.7768" fill="#808080"/>
<path d="M25.575 57.0369C25.031 56.858 23.9388 56.9218 23.4959 56.9828C23.0294 57.0467 24.2489 57.6529 24.768 57.9539C25.2622 58.2383 25.5985 58.2382 25.658 58.0246C25.7577 57.657 25.7148 57.3269 25.6816 57.1687C25.6677 57.1049 25.6456 57.0619 25.575 57.0397" fill="#808080"/>
<path d="M4.6136 56.3032C6.92387 58.3077 8.66246 59.8891 10.1297 63.013C12.285 67.5977 11.0489 72.1505 9.61481 75.1898C8.10185 78.3998 5.45383 80.4722 4.38659 82.1119C3.61834 83.2924 3.41071 84.9293 4.91398 85.8989C8.41607 88.1545 15.2915 79.3736 16.2023 73.65C16.4598 72.0284 16.1497 70.7785 15.2984 69.9018C15.2417 69.8436 15.1157 69.7992 15.1019 69.9254C15.0507 70.3901 14.8859 71.6483 14.4762 73.3213C13.4906 77.3427 11.5098 80.7719 8.04371 83.6322C6.17085 85.1776 5.05102 83.9111 6.27605 82.6196C9.24245 79.4915 11.0073 77.2359 12.1687 74.2729C13.3176 71.3431 14.5219 65.2977 10.3568 59.5672C8.18075 56.5737 5.88986 54.8217 2.86671 52.1305C2.80442 52.075 2.65492 52.0612 2.64108 52.2373C2.58986 52.8935 2.67292 54.6177 4.61499 56.3018" fill="#808080"/>
<path d="M2.97038 65.4949C3.58635 66.1274 5.00103 67.5216 5.34986 69.164C5.42045 69.4969 5.56857 69.404 5.61009 69.164C5.90908 67.4494 5.71945 65.8819 4.29785 64.2672C2.91916 62.7011 0.960481 61.0323 0.272521 60.4594C0.113335 60.3276 0.0053658 60.3803 0.00121313 60.5898C-0.0126291 61.2251 0.0773455 62.6234 1.04492 63.6152C1.11828 63.6901 2.83472 65.3256 2.97176 65.4949" fill="#808080"/>
<path d="M25.1064 67.0555C25.0621 67.3385 25.0358 67.7491 25.0372 67.9086C25.0413 68.2124 25.0635 69.2375 25.8234 70.0019C26.4422 70.6233 27.771 71.8122 28.243 72.2311C28.3496 72.3268 28.4244 72.3046 28.4368 72.1701C28.452 72.0258 28.4728 71.8149 28.4922 71.5694C28.5309 71.095 28.5711 70.4083 27.7932 69.5621C27.173 68.8907 25.8552 67.5244 25.3417 66.9931C25.2088 66.8557 25.1327 66.8932 25.1078 67.0555" fill="#808080"/>
<path d="M42.3102 73.7875C41.8894 73.5531 41.4202 73.517 41.0575 73.7639C40.1301 74.3937 37.0197 75.4313 33.9329 73.4143C37.19 69.5149 40.6076 67.2275 41.3108 66.778C41.3953 66.7239 41.3593 66.6421 41.3164 66.6171C40.2173 65.972 38.7722 66.4284 36.8467 68.0861C35.731 69.0475 33.9149 70.7939 32.8684 71.8135C32.9114 71.0741 32.8504 69.8673 32.1999 68.777C36.3761 67.2927 39.0172 62.3903 39.485 61.9464C39.82 61.6274 42.1552 61.8882 42.4763 62.0518C43.2833 62.4625 42.277 65.8985 42.5469 65.7556C44.0004 64.983 44.4516 63.3863 44.4419 62.0491C44.435 61.2015 44.3963 60.3539 42.1164 60.0154C40.281 59.7436 38.8552 60.0487 38.3278 60.2832C38.2005 60.34 38.0994 60.4621 38.0787 60.5037C35.904 64.9996 32.2234 66.8404 30.9416 67.3676C29.2736 65.7765 28.2216 64.7347 28.2216 64.7347H30.2633C31.0371 64.7347 31.9881 64.5932 31.5659 63.5001C31.1437 62.407 30.5457 61.1363 30.5457 61.1363C30.5457 61.1363 31.7071 59.0902 32.1653 58.3134C32.6234 57.5379 32.8698 56.7611 31.4967 56.1618C30.1249 55.5626 29.0729 55.4017 28.3988 55.2796C27.7703 55.1658 27.8312 55.0091 27.6596 54.6803C27.4409 54.2572 27.3371 54.0769 26.4982 53.9035C25.503 53.6968 23.5402 53.3736 23.5402 53.3736C23.5402 53.3736 23.1886 52.1043 23.0474 51.6798C22.9062 51.2567 22.4854 51.2914 21.8514 51.7159C21.2174 52.139 15.1005 55.8428 14.5648 61.7522C14.3724 63.8691 14.7185 65.6488 15.3483 67.1082C16.5318 69.8534 18.8296 71.7303 19.4539 72.2047C19.5564 72.2824 19.6228 72.2588 19.6394 72.1464C19.6602 72.0022 19.6906 71.7788 19.7211 71.5125C19.7723 71.0797 19.8166 70.4707 19.2574 69.6939C18.1001 68.0875 17.1298 67.1581 16.6246 65.2576C15.7151 61.8382 16.7076 57.2841 22.1116 53.959C22.167 53.9298 22.1822 53.9826 22.1822 53.9826L22.5338 55.1367C22.5338 55.1367 22.5643 55.1852 22.5975 55.1894C23.0335 55.2435 26.2242 55.643 26.2906 55.6611C26.364 55.6791 26.4013 55.736 26.4013 55.736L26.9121 56.5183C26.9121 56.5183 26.9841 56.5905 27.0353 56.6002C27.4713 56.6779 29.5795 57.0704 30.4101 57.5684C30.4834 57.6128 30.4516 57.6683 30.4516 57.6683L29.1352 60.1514C29.1352 60.1514 27.906 60.1847 27.5004 60.1847C27.0948 60.1847 26.7792 60.3248 27.0782 60.7659C27.3772 61.207 27.607 61.5427 28.2922 61.5427H29.0895L29.7221 63.077C29.7221 63.077 28.3919 63.0423 27.517 63.0423C26.4789 63.0423 25.8421 63.3641 25.9155 64.2242C25.9681 64.8415 27.081 66.0012 29.7885 68.4745C30.9873 69.5718 31.1949 70.1683 30.9319 73.0259C30.9319 73.0259 32.8255 75.0706 35.403 75.7767C37.2689 76.2872 39.3618 76.3801 41.3108 75.5298C41.3108 75.5298 42.9276 76.566 43.545 77.7979C43.5616 77.8325 43.5657 77.9463 43.5256 78.0143C43.2833 78.411 42.4016 79.6151 41.3122 80.3794C41.1696 80.4793 41.016 80.618 41.2624 80.6652C41.9227 80.7914 43.3955 80.8192 44.7852 79.3571C45.9937 78.0864 45.505 77.1584 44.9195 76.3427C44.2495 75.4077 43.2695 74.3229 42.313 73.7903" fill="#808080"/>
<path d="M20.9517 67.0555C20.9088 67.3385 20.8825 67.7491 20.8838 67.9086C20.8866 68.2124 20.9101 69.2375 21.6701 70.0019C22.2888 70.6233 23.6177 71.8122 24.0897 72.2311C24.1963 72.3268 24.2697 72.3046 24.2835 72.1701C24.2987 72.0258 24.3195 71.8149 24.3389 71.5694C24.3762 71.095 24.4178 70.4083 23.6384 69.5621C23.0183 68.8907 21.7005 67.5244 21.187 66.9931C21.0541 66.8557 20.978 66.8932 20.9517 67.0555Z" fill="#808080"/>
<path d="M49.5913 114.716V104.994C49.5913 104.643 49.8751 104.358 50.2253 104.358H56.2605C56.5941 104.358 56.7768 104.525 56.7768 104.826V104.926C56.7768 105.243 56.5941 105.393 56.2605 105.393H50.725V109.47H54.9095C55.2431 109.47 55.4258 109.636 55.4258 109.938V110.004C55.4258 110.322 55.2431 110.472 54.9095 110.472H50.725V114.715C50.725 115.066 50.5589 115.232 50.2253 115.232H50.0758C49.7588 115.232 49.5927 115.066 49.5927 114.715L49.5913 114.716Z" fill="#808080"/>
<path d="M58.1445 114.533V104.994C58.1445 104.643 58.4283 104.358 58.7785 104.358H65.2304C65.564 104.358 65.7467 104.525 65.7467 104.826V104.926C65.7467 105.243 65.564 105.393 65.2304 105.393H59.2782V109.119H64.0469C64.3805 109.119 64.5632 109.286 64.5632 109.587V109.653C64.5632 109.971 64.3805 110.121 64.0469 110.121H59.2782V114.131H65.33C65.6636 114.131 65.8464 114.281 65.8464 114.582V114.682C65.8464 114.999 65.6623 115.166 65.33 115.166H58.7785C58.4283 115.166 58.1445 114.881 58.1445 114.53V114.533Z" fill="#808080"/>
<path d="M66.7455 113.247C66.7455 112.763 67.3795 112.512 67.4127 112.562C67.9969 113.565 69.0793 114.383 70.6809 114.383C72.2824 114.383 73.3317 113.631 73.3317 112.379C73.3317 110.958 71.9142 110.574 70.3639 110.206C68.7305 109.822 67.0459 109.288 67.0459 107.132C67.0459 105.429 68.5962 104.158 70.6629 104.158C72.897 104.158 74.23 105.328 74.23 106.03C74.23 106.514 73.5961 106.765 73.5628 106.715C73.0631 105.83 72.0125 105.145 70.6795 105.145C69.179 105.145 68.145 105.93 68.145 107.099C68.145 108.486 69.2787 108.769 70.912 109.154C72.6299 109.555 74.446 110.19 74.446 112.327C74.446 114.166 72.9621 115.368 70.6947 115.368C68.2945 115.368 66.7441 114.032 66.7441 113.246L66.7455 113.247Z" fill="#808080"/>
<path d="M75.2144 104.927V104.844C75.2144 104.526 75.3971 104.36 75.7307 104.36H83.6332C83.9668 104.36 84.1495 104.526 84.1495 104.844V104.927C84.1495 105.228 83.9654 105.395 83.6332 105.395H80.2488V114.717C80.2488 115.067 80.0827 115.234 79.7491 115.234H79.5996C79.2826 115.234 79.1165 115.067 79.1165 114.717V105.395H75.7321C75.3985 105.395 75.2157 105.228 75.2157 104.927H75.2144Z" fill="#808080"/>
<path d="M85.6685 114.717V104.809C85.6685 104.475 85.8346 104.292 86.1516 104.292H86.301C86.6346 104.292 86.8008 104.476 86.8008 104.809V114.717C86.8008 115.068 86.6346 115.234 86.301 115.234H86.1516C85.8346 115.234 85.6685 115.068 85.6685 114.717Z" fill="#808080"/>
<path d="M89.5522 104.809L92.9366 113.981L96.3376 104.809C96.4871 104.408 96.7377 104.292 96.9882 104.292C97.3218 104.292 97.6554 104.543 97.6222 104.626L93.6716 114.851C93.5553 115.136 93.4045 115.269 92.9214 115.269C92.4383 115.269 92.2874 115.136 92.1711 114.851L88.2206 104.626C88.1873 104.543 88.5209 104.292 88.8711 104.292C89.1383 104.292 89.4041 104.408 89.5549 104.809H89.5522Z" fill="#808080"/>
<path d="M103.989 111.642H99.3546L98.1877 114.716C98.0382 115.117 97.7877 115.234 97.5371 115.234C97.2035 115.234 96.8699 114.983 96.9032 114.9L100.854 104.675C100.97 104.39 101.171 104.257 101.704 104.257C102.237 104.257 102.437 104.39 102.554 104.675L106.504 114.9C106.537 114.983 106.204 115.234 105.854 115.234C105.586 115.234 105.321 115.117 105.17 114.716L103.986 111.642H103.989ZM99.7215 110.639H103.622L101.672 105.561L99.7215 110.639Z" fill="#808080"/>
<path d="M107.74 114.533V104.81C107.74 104.459 107.907 104.293 108.223 104.293H108.372C108.706 104.293 108.872 104.461 108.872 104.81V114.116H114.074C114.407 114.116 114.59 114.284 114.59 114.6V114.683C114.59 114.984 114.407 115.167 114.074 115.167H108.372C108.022 115.167 107.738 114.883 107.738 114.532L107.74 114.533Z" fill="#808080"/>
<path d="M77.9798 39.9442C77.0579 38.4557 76.4004 36.8272 76.0087 35.0765H68.8591L75.628 29.7053C75.7844 27.4206 76.3353 25.2247 77.2724 23.1619C78.3784 20.7274 79.8831 18.0876 81.7421 15.3146L84.2656 11.5733C83.9361 10.0377 83.37 8.59504 82.5671 7.26195C81.2106 5.01331 79.2422 3.21967 76.7174 1.93097C74.2036 0.649206 71.1708 0 67.7061 0C64.2414 0 61.4383 0.649206 58.8609 1.92958C56.271 3.2169 54.1822 5.10764 52.6554 7.54771C51.1314 9.98362 50.269 12.8953 50.0932 16.201L50.0669 16.6962H63.6337L63.6475 16.2398C63.6863 14.9303 64.0296 13.883 64.6691 13.1256C65.2934 12.3876 66.1599 12.0283 67.3199 12.0283C68.0549 12.0283 68.6847 12.1726 69.1941 12.4556C69.7077 12.7414 70.0952 13.1103 70.3776 13.5834C70.6559 14.0481 70.7957 14.6099 70.7957 15.2536C70.7957 16.2343 70.5603 17.0847 70.098 17.781C69.6038 18.5232 68.801 19.411 67.7171 20.4153L50.352 36.0517V47.2353H84.4164V45.8037C81.6743 44.379 79.5107 42.4106 77.9839 39.9456L77.9798 39.9442Z" fill="#808080"/>
<path d="M86.1123 45.5636C83.2649 44.1598 81.0654 42.2038 79.5123 39.6958C77.9592 37.1891 77.1826 34.3149 77.1826 31.073C77.1826 28.3499 77.7322 25.7781 78.8326 23.3574C79.9331 20.9368 81.41 18.3441 83.2649 15.5767L92.841 1.37738H107.14L97.1764 16.4201C97.3923 16.2481 97.7038 16.1066 98.1149 15.9984C98.5246 15.8902 98.9662 15.8361 99.441 15.8361C102.244 15.8361 104.779 16.5172 107.043 17.878C109.308 19.2389 111.086 21.0991 112.381 23.4545C113.675 25.8114 114.321 28.4581 114.321 31.3976C114.321 34.337 113.502 37.2446 111.863 39.7291C110.223 42.2149 107.991 44.1598 105.166 45.565C102.341 46.9688 99.2679 47.6721 95.9472 47.6721C92.2374 47.6721 88.9596 46.9688 86.1136 45.565L86.1123 45.5636ZM98.9219 36.9075C99.8701 36.3457 100.626 35.5897 101.186 34.6381C101.747 33.6878 102.028 32.6502 102.028 31.5252C102.028 30.4002 101.758 29.4292 101.22 28.4776C100.68 27.5273 99.9254 26.7824 98.9551 26.24C97.9848 25.7004 96.8954 25.4299 95.6883 25.4299C94.5657 25.4299 93.5303 25.7004 92.5821 26.24C91.6325 26.781 90.8781 27.5273 90.3175 28.4776C89.7569 29.4292 89.4759 30.4876 89.4759 31.6542C89.4759 32.8208 89.7555 33.8696 90.3175 34.799C90.8781 35.7284 91.6436 36.4525 92.614 36.9713C93.5843 37.4901 94.6515 37.7495 95.8171 37.7495C96.9826 37.7495 97.9737 37.4693 98.9233 36.9061L98.9219 36.9075Z" fill="#808080"/>
</svg>
