<svg width="161" height="39" viewBox="0 0 161 39" fill="none" xmlns="http://www.w3.org/2000/svg">
<rect width="161" height="39" rx="8" fill="white"/>
<path d="M119.907 8.48879C112.249 8.48879 106.253 15.2902 106.019 23.7011C105.604 38.1866 124.918 43.1968 131.252 35.2012V29.0488C131.252 29.0488 129.253 32.5274 121.439 32.5274C113.625 32.5274 113.366 26.7124 113.366 26.7124H133.51C133.692 25.726 133.796 24.7135 133.796 23.6751C133.77 15.2902 127.565 8.48879 119.907 8.48879ZM113.262 21.5984C114.092 18.3534 116.844 15.9911 120.089 15.9911C123.36 15.9911 126.112 18.3794 126.916 21.5984H113.262ZM19.9629 12.7981C17.8342 10.4098 15.0306 8.95606 11.9414 8.95606C5.34767 8.95606 0 15.6277 0 23.8828C0 32.112 5.34767 38.8096 11.9674 38.8096C15.0566 38.8096 17.8602 37.3558 19.9889 34.9676V38.6279H27.6729V9.11182H19.9629V12.7981ZM14.2518 32.1899C10.8771 32.1899 8.12535 28.5296 8.12535 24.0126C8.12535 19.4956 10.8771 15.8353 14.2518 15.8353C17.6266 15.8353 20.3783 19.4956 20.3783 24.0126C20.3523 28.5296 17.6266 32.1899 14.2518 32.1899ZM71.2591 35.2012V20.0927V15.8353C71.2591 15.8353 70.7658 8.90414 63.5491 8.90414C56.3323 8.90414 54.7747 12.9279 54.7747 12.9279C54.7747 12.9279 52.672 8.5407 47.1945 8.5407C42.6776 8.5407 40.2633 11.1626 39.5365 12.0972V8.95606H32.0082V38.524H39.5365V19.2361C40.0037 18.0419 41.3017 15.6796 44.0015 15.6796C46.9609 15.6796 47.8435 18.1198 48.0252 19.5735V35.1493C48.3108 36.629 49.1675 37.6674 50.2318 38.524H57.7601C56.5659 37.5376 55.8131 36.4473 55.5535 35.2012V20.6379C55.5535 20.6379 55.3199 15.9392 59.8109 15.7056C63.0558 15.5498 63.6529 18.5092 63.7308 20.1446V21.0273C63.7308 21.1311 63.7308 21.183 63.7308 21.183V35.1233C64.0163 36.603 64.873 37.6414 65.9373 38.4981H73.4656C72.2715 37.5376 71.4927 36.4473 71.2591 35.2012ZM92.1046 8.95606C89.0154 8.95606 86.2118 10.4098 84.0831 12.7981V0H76.3991V38.6279H84.0831V34.9416C86.2118 37.3299 89.0154 38.7836 92.1046 38.7836C98.6983 38.7836 104.072 32.112 104.072 23.8569C104.046 15.6277 98.6983 8.95606 92.1046 8.95606ZM89.8202 32.1899C86.4454 32.1899 83.6937 28.5296 83.6937 24.0126C83.6937 19.4956 86.4454 15.8353 89.8202 15.8353C93.1949 15.8353 95.9466 19.4956 95.9466 24.0126C95.9207 28.5296 93.1949 32.1899 89.8202 32.1899ZM151.734 8.98202L146.178 29.8016L140.597 8.98202H131.693L141.558 38.55H150.02L160.43 8.98202H151.734Z" fill="#808080"/>
</svg>
