<svg width="161" height="34" viewBox="0 0 161 34" fill="none" xmlns="http://www.w3.org/2000/svg">
<rect width="161" height="34" rx="8" fill="white"/>
<path d="M39.3949 3.0393C37.1727 1.09686 34.0335 0.0109253 30.568 0.0109253C27.1802 0.0109253 23.9167 1.24981 21.6012 3.39108L21.4147 3.57462L21.2282 3.39108C18.9282 1.24981 15.6647 0.0109253 12.2769 0.0109253C8.81141 0.0109253 5.68779 1.08156 3.46551 3.0393C1.32093 4.90527 0 6.84772 0 10.7326V33.3231H6.24724V10.7326C6.24724 7.76541 8.88911 5.44059 12.2769 5.44059C15.6647 5.44059 18.3066 7.76541 18.3066 10.7326V33.3231H24.5538V10.7326C24.5538 7.76541 27.1957 5.44059 30.5835 5.44059C33.9713 5.44059 36.6132 7.76541 36.6132 10.7326V33.3231H42.8604V10.7326C42.8449 6.84772 41.524 4.90527 39.3949 3.0393Z" fill="#808080"/>
<path d="M67.9124 3.00841C65.7989 1.05067 62.7996 0.0106201 59.2408 0.0106201C53.3199 0.0106201 49.9632 3.3296 48.3315 4.93556L50.9112 9.38636L50.9267 9.37106C52.4652 7.73451 56.6767 4.10964 62.4888 6.0062L62.5199 6.02149C63.7165 6.54152 65.1462 7.61216 65.1462 9.72284V9.73814C65.1773 9.99815 65.1928 10.2888 65.1928 10.5794V12.323L58.4793 13.6383C55.2625 14.2654 52.6517 15.336 50.7402 16.8196C48.3625 18.6703 47.1504 21.0563 47.1504 23.9317C47.1504 26.9754 48.4402 29.545 50.8645 31.365C53.0247 32.9863 55.9618 33.8734 59.132 33.8734C62.2868 33.8734 65.255 32.8486 67.4617 30.9827C69.7772 29.0249 71.0515 26.3177 71.0515 23.3353V10.5641C71.0515 7.29096 70.1191 5.04262 67.9124 3.00841ZM65.1928 23.32C65.1928 24.8341 64.6334 26.226 63.6388 27.2354C62.5354 28.352 60.9503 28.9332 59.0699 28.9332C57.7645 28.9332 55.3557 28.6884 53.9416 27.006C52.8382 25.7059 52.6672 23.8094 53.522 22.2952C55.0138 19.6186 58.4483 18.6091 61.5874 17.9668L61.9293 17.8903C62.6286 17.7526 64.2604 17.4314 64.8354 17.3091L65.1617 17.2326V23.32H65.1928Z" fill="#808080"/>
<path d="M94.5954 2.6872C94.0981 2.25895 93.5697 1.86128 93.0258 1.5248C91.7515 0.729464 90.4616 0.240029 89.1873 0.0870809C86.7164 -0.234111 83.7792 0.347093 81.5259 1.60127C80.811 1.99894 80.1428 2.47308 79.5522 3.02369C77.5165 4.90495 76.4131 6.66386 76.4131 10.5793V33.3381H82.2718V11.8182C82.2718 11.2982 82.2718 10.7935 82.2718 10.2734C82.2718 9.72283 82.2874 9.2181 82.4272 8.71337C82.6603 7.88745 83.1887 7.12271 83.9036 6.5568C84.2299 6.29679 84.5718 6.08266 84.9448 5.92971C87.2292 4.99672 89.7157 5.54734 91.6738 7.38272C94.2846 4.98143 95.2636 4.09433 95.6521 3.74255C95.3568 3.39077 94.7197 2.79427 94.5954 2.6872Z" fill="#808080"/>
<path d="M148.473 0.0105591C142.552 0.0105591 139.196 3.32954 137.564 4.9355L140.144 9.3863L140.159 9.371C141.698 7.73445 145.909 4.10958 151.721 6.00614L151.752 6.02143C152.949 6.54146 154.379 7.61209 154.379 9.72278V9.73808C154.41 9.99809 154.425 10.2887 154.425 10.5793V12.3229L147.712 13.6383C144.495 14.2653 141.884 15.336 139.973 16.8196C137.595 18.6703 136.383 21.0563 136.383 23.9317C136.383 26.9754 137.673 29.5449 140.097 31.365C142.257 32.9862 145.194 33.8733 148.364 33.8733C151.519 33.8733 154.487 32.8486 156.694 30.9826C159.01 29.0249 160.284 26.3177 160.284 23.3352V10.564C160.284 7.52033 159.196 4.90491 157.145 3.00835C155.031 1.05061 152.032 0.0105591 148.473 0.0105591ZM154.425 23.3199C154.425 24.8341 153.866 26.2259 152.871 27.2354C151.768 28.3519 150.183 28.9331 148.302 28.9331C146.997 28.9331 144.588 28.6884 143.174 27.006C142.071 25.7059 141.9 23.8093 142.754 22.2951C144.246 19.6185 147.681 18.6091 150.82 17.9667L151.162 17.9055C151.861 17.7679 153.508 17.4314 154.083 17.3243L154.41 17.2478V23.3199H154.425Z" fill="#808080"/>
<path d="M126.608 15.5349C125.101 14.7396 123.531 14.1583 121.775 13.5313L121.511 13.4395C120.376 13.0418 119.211 12.6136 118.138 12.0782C116.771 11.4053 116.009 10.6558 115.745 9.75343L115.73 9.72284C115.497 8.88163 115.699 7.97923 116.258 7.30626C116.786 6.66388 117.61 6.17444 118.698 5.85325C119.18 5.7003 119.692 5.60853 120.205 5.54735C122.07 5.33322 124.013 5.65442 125.784 6.49563C126.981 7.06154 128.1 7.84158 129.11 8.80515C129.157 8.85104 129.576 9.264 129.669 9.37106L129.685 9.38636L129.7 9.37106C129.716 9.34047 132.109 5.19557 132.265 4.93556C130.648 3.3296 127.276 0.0106201 121.355 0.0106201C117.703 0.0106201 114.378 1.15773 112.264 3.16136C110.057 5.24146 109.203 8.33101 110.011 11.237C110.632 13.4395 112.42 15.4125 115.03 16.7891C116.662 17.6456 118.465 18.3033 120.019 18.8539L120.221 18.9303C121.588 19.4045 122.987 19.9092 124.23 20.6587C125.691 21.5458 126.421 22.7082 126.421 24.0847C126.421 25.9966 124.836 27.3272 123.127 28.0614C121.215 28.872 119.009 28.612 117.051 28.0461C114.393 27.2813 111.705 24.6047 111.674 24.5741L109.032 28.9485C110.648 30.5544 114.02 33.8581 119.941 33.8581C120.423 33.8581 120.905 33.8428 121.402 33.7969L121.697 33.7663V33.7816H121.713C124.324 33.5216 126.686 32.6498 128.535 31.2733C130.959 29.4685 132.28 26.9295 132.28 24.0847C132.28 22.0505 131.705 20.1998 130.602 18.7468C129.7 17.5232 128.38 16.4679 126.608 15.5349Z" fill="#808080"/>
<path d="M104.743 0.576538H98.8843V33.3228H104.743V0.576538Z" fill="#808080"/>
</svg>
