<svg width="38" height="39" viewBox="0 0 38 39" fill="none" xmlns="http://www.w3.org/2000/svg">
<path d="M24.9375 19.5C24.9375 21.1162 24.3119 22.6661 23.1984 23.8089C22.0849 24.9517 20.5747 25.5938 19 25.5938C17.4253 25.5938 15.9151 24.9517 14.8016 23.8089C13.6881 22.6661 13.0625 21.1162 13.0625 19.5C13.0625 19.1527 13.0981 18.8134 13.1595 18.4844H11.0833V26.6033C11.0833 27.168 11.5286 27.625 12.0789 27.625H25.9231C26.1868 27.6245 26.4395 27.5166 26.6258 27.325C26.8121 27.1335 26.9167 26.8739 26.9167 26.6033V18.4844H24.8405C24.9019 18.8134 24.9375 19.1527 24.9375 19.5ZM19 23.5625C19.5199 23.5624 20.0348 23.4571 20.5151 23.2528C20.9954 23.0485 21.4318 22.749 21.7994 22.3716C22.1669 21.9942 22.4585 21.5461 22.6573 21.0531C22.8562 20.56 22.9585 20.0316 22.9583 19.498C22.9582 18.9643 22.8557 18.436 22.6566 17.943C22.4575 17.45 22.1657 17.0022 21.798 16.6249C21.4302 16.2477 20.9937 15.9485 20.5133 15.7444C20.0328 15.5403 19.518 15.4353 18.998 15.4355C17.9479 15.4357 16.941 15.8641 16.1986 16.6264C15.4563 17.3886 15.0394 18.4223 15.0397 19.5C15.0399 20.5777 15.4573 21.6112 16.2 22.373C16.9427 23.1349 17.9499 23.5628 19 23.5625ZM23.75 15.2344H26.123C26.2807 15.2344 26.4319 15.1702 26.5436 15.056C26.6552 14.9418 26.7182 14.7868 26.7188 14.625V12.1895C26.7188 12.0274 26.656 11.8719 26.5443 11.7572C26.4325 11.6425 26.281 11.5781 26.123 11.5781H23.75C23.592 11.5781 23.4405 11.6425 23.3288 11.7572C23.217 11.8719 23.1543 12.0274 23.1543 12.1895V14.625C23.1562 14.9602 23.4234 15.2344 23.75 15.2344ZM19 0C13.9609 0 9.12816 2.05446 5.56497 5.71142C2.00178 9.36838 0 14.3283 0 19.5C0 24.6717 2.00178 29.6316 5.56497 33.2886C9.12816 36.9455 13.9609 39 19 39C21.4951 39 23.9658 38.4956 26.271 37.5157C28.5762 36.5357 30.6707 35.0993 32.435 33.2886C34.1993 31.4778 35.5989 29.3282 36.5537 26.9623C37.5086 24.5965 38 22.0608 38 19.5C38 16.9392 37.5086 14.4035 36.5537 12.0377C35.5989 9.67182 34.1993 7.52216 32.435 5.71142C30.6707 3.90068 28.5762 2.46432 26.271 1.48435C23.9658 0.504382 21.4951 0 19 0ZM28.8958 27.3995C28.8958 28.6406 27.9062 29.6562 26.697 29.6562H11.303C10.0938 29.6562 9.10417 28.6406 9.10417 27.3995V11.6005C9.10417 10.3594 10.0938 9.34375 11.303 9.34375H26.697C27.9062 9.34375 28.8958 10.3594 28.8958 11.6005V27.3995Z" fill="white"/>
</svg>
