<svg width="205" height="29" viewBox="0 0 205 29" fill="none" xmlns="http://www.w3.org/2000/svg">
<path d="M4.77475 13.3424H0V8.90817H4.77475V6.97978C4.77475 4.693 5.482 2.95801 6.89348 1.77481C8.30496 0.591603 10.3144 0 12.9219 0C13.4986 0 14.0875 0.0312867 14.6915 0.0967043C15.2956 0.162122 15.8025 0.258826 16.2153 0.386817V4.78402C15.7205 4.68163 15.2834 4.60483 14.8979 4.55364C14.5124 4.50244 14.0875 4.47684 13.6231 4.47684C12.5789 4.47684 11.7836 4.69016 11.2372 5.11395C10.6878 5.53774 10.4146 6.20045 10.4146 7.09924V8.91102H16.2184V13.3452H10.4146V28.9999H4.77475V13.3424Z" fill="white"/>
<path d="M18.8133 22.8744C18.8133 19.3204 22.1774 17.2476 25.1114 16.1142C23.5445 14.9836 22.3802 13.0645 22.3802 11.3049C22.3802 7.5015 26.3464 6.30425 28.7121 6.30425C31.9778 6.30425 34.4449 8.5683 34.4449 11.1135C34.4449 13.6588 32.0116 15.7982 29.5477 16.7722L33.9134 21.3931L36.7798 17.7144C37.0133 17.4013 37.2805 17.3056 37.6123 17.3056H39.6769C40.2422 17.3056 40.4419 17.6506 40.1101 18.0912L35.812 23.4049L37.3789 25.0718C38.2114 25.8574 38.8443 26.1734 39.8121 26.1734C40.4112 26.1734 41.2437 26.0169 41.8766 25.669C42.276 25.4487 42.6109 25.4487 42.8106 25.8893L43.3759 26.9271C43.5418 27.2721 43.4773 27.5881 43.1762 27.8693C42.3098 28.5302 41.1761 28.9998 39.6431 28.9998C37.6093 28.9998 36.3097 28.1824 35.0102 26.9242L34.0424 25.9502C32.709 27.9301 29.8426 28.9998 27.0131 28.9998C22.5491 28.9998 18.8163 26.7677 18.8163 22.8686L18.8133 22.8744ZM32.0762 23.8485L26.8779 18.2188C24.8779 18.816 22.245 20.3263 22.245 22.7469C22.245 24.8544 24.3771 26.3618 27.0438 26.3618C29.176 26.3618 30.7766 25.4487 32.0762 23.8456V23.8485ZM31.2098 11.273C31.2098 10.0786 30.2113 8.82051 28.4786 8.82051C27.0469 8.82051 25.7781 9.73366 25.7781 11.4295C25.7781 12.6558 26.543 13.9777 27.8119 15.0445C30.1775 13.9139 31.2098 12.4963 31.2098 11.273Z" fill="white"/>
<path d="M46.0601 28.9971V8.58868H51.8285V10.1548C53.4003 8.84873 55.3106 8.19571 57.5565 8.19571C58.9885 8.19571 60.2651 8.46443 61.3896 8.99899C62.511 9.53354 63.4398 10.2848 64.1697 11.2499C65.0675 10.2588 66.136 9.50176 67.3692 8.97876C68.6055 8.45576 69.966 8.19571 71.454 8.19571C73.0816 8.19571 74.5199 8.54245 75.7717 9.23303C77.0204 9.92651 78.0051 10.8772 78.7195 12.0936C79.434 13.3072 79.7943 14.7115 79.7943 16.3065V29H74.026V17.1271C74.026 15.7951 73.6532 14.7433 72.9108 13.9747C72.1653 13.2032 71.162 12.8189 69.9008 12.8189C69.0311 12.8189 68.239 12.9836 67.5214 13.3072C66.807 13.6337 66.195 14.1509 65.6887 14.856C65.7167 15.09 65.7446 15.327 65.7726 15.561C65.8005 15.7951 65.8161 16.0436 65.8161 16.3065V29H60.0477V17.1271C60.0477 15.7951 59.6749 14.7433 58.9325 13.9747C58.187 13.2032 57.1837 12.8189 55.9226 12.8189C55.0528 12.8189 54.2731 12.9749 53.5866 13.2899C52.8971 13.6019 52.3162 14.0729 51.8378 14.6999V29H46.0695L46.0601 28.9971Z" fill="white"/>
<path d="M88.4678 28.9999L82.3893 8.82608H87.9198L91.5507 21.8346L95.9415 8.82608H100.796L105.143 21.8745L108.774 8.82608H114.177L108.099 28.9999H102.525L98.3019 16.1057L94.0388 28.9999H88.4647H88.4678Z" fill="white"/>
<path d="M128.429 28.9999C126.249 28.9999 124.28 28.5227 122.517 27.5711C120.755 26.6196 119.36 25.3284 118.324 23.7005C117.289 22.0726 116.772 20.2661 116.772 18.2811C116.772 16.296 117.289 14.4514 118.324 12.8236C119.357 11.1957 120.755 9.9133 122.517 8.97346C124.277 8.03362 126.249 7.56517 128.429 7.56517C130.609 7.56517 132.622 8.03655 134.381 8.97346C136.141 9.9133 137.538 11.1957 138.574 12.8236C139.607 14.4514 140.127 16.2696 140.127 18.2811C140.127 20.2925 139.61 22.0726 138.574 23.7005C137.542 25.3284 136.144 26.6166 134.381 27.5711C132.619 28.5256 130.637 28.9999 128.429 28.9999ZM128.429 24.2773C129.576 24.2773 130.609 24.005 131.531 23.4633C132.452 22.9217 133.179 22.1985 133.711 21.2997C134.242 20.4008 134.508 19.3819 134.508 18.243C134.508 17.1041 134.236 16.1262 133.692 15.2273C133.148 14.3285 132.421 13.6141 131.512 13.0841C130.603 12.5542 129.592 12.2907 128.473 12.2907C127.353 12.2907 126.293 12.5571 125.371 13.0841C124.45 13.6141 123.723 14.3285 123.191 15.2273C122.659 16.1262 122.394 17.1334 122.394 18.243C122.394 19.3527 122.659 20.4008 123.191 21.2997C123.723 22.1985 124.44 22.9217 125.35 23.4633C126.259 24.005 127.285 24.2773 128.429 24.2773Z" fill="white"/>
<path d="M142.722 8.66487H148.618V10.9272C149.301 10.0436 150.149 9.36717 151.161 8.89801C152.172 8.42885 153.304 8.19571 154.558 8.19571C155.67 8.22161 156.48 8.36553 156.994 8.62457V13.3479C156.537 13.1665 156.061 13.0284 155.563 12.9391C155.065 12.847 154.545 12.8039 154.003 12.8039C152.862 12.8039 151.822 13.0629 150.883 13.5839C149.944 14.1048 149.188 14.8446 148.618 15.8088V29H142.722V8.66487Z" fill="white"/>
<path d="M159.592 28.9971V2.14377L165.427 1.26092V17.4126L175.055 9.01133H181.656L171.133 18.1426L182.294 29H174.797L165.424 19.9083V29H159.589L159.592 28.9971Z" fill="white"/>
<path d="M195.137 28.9999C193.127 28.9999 191.24 28.754 189.475 28.265C187.709 27.7761 186.182 27.0822 184.889 26.1804L187.817 22.5294C189.11 23.3228 190.351 23.9201 191.542 24.3153C192.733 24.7135 193.917 24.9097 195.092 24.9097C196.413 24.9097 197.468 24.7047 198.258 24.2948C199.046 23.885 199.443 23.3492 199.443 22.6875C199.443 22.1575 199.22 21.7359 198.776 21.4168C198.331 21.1006 197.62 20.8751 196.645 20.7434L192.339 20.149C190.129 19.8328 188.443 19.1623 187.28 18.1435C186.118 17.1246 185.537 15.7807 185.537 14.1147C185.537 12.765 185.918 11.5997 186.677 10.6218C187.436 9.64394 188.522 8.88855 189.929 8.35861C191.336 7.82867 192.971 7.56517 194.838 7.56517C196.502 7.56517 198.119 7.77597 199.681 8.20051C201.246 8.62505 202.717 9.2721 204.095 10.1446L201.253 13.6785C200.018 12.9641 198.833 12.4488 197.703 12.1297C196.569 11.8135 195.442 11.6524 194.324 11.6524C193.292 11.6524 192.444 11.8369 191.783 12.2087C191.123 12.5806 190.793 13.0695 190.793 13.6785C190.793 14.2348 191.021 14.671 191.482 14.9872C191.939 15.3035 192.714 15.5435 193.806 15.7016L198.112 16.2579C200.351 16.5507 202.059 17.2095 203.234 18.243C204.413 19.2765 205 20.5853 205 22.1722C205 23.4956 204.568 24.6667 203.708 25.6856C202.847 26.7045 201.675 27.5126 200.199 28.1069C198.719 28.7013 197.036 28.9999 195.14 28.9999H195.137Z" fill="white"/>
</svg>
