<svg width="653" height="95" viewBox="0 0 653 95" fill="none" xmlns="http://www.w3.org/2000/svg">
<path d="M15.2002 43.7078H0V29.182H15.2002V22.8648C15.2002 15.3737 17.4517 9.69006 21.9451 5.81404C26.4385 1.93801 32.8355 0 41.1361 0C42.9722 0 44.8468 0.102491 46.7698 0.31679C48.6928 0.53109 50.3065 0.84788 51.6207 1.26716V15.6718C50.0456 15.3364 48.6541 15.0848 47.4269 14.9171C46.1997 14.7494 44.8468 14.6655 43.3683 14.6655C40.0442 14.6655 37.5125 15.3643 35.7731 16.7526C34.024 18.1409 33.1544 20.3119 33.1544 23.2561V29.1913H51.6304V43.7171H33.1544V94.9999H15.2002V43.7078Z" fill="white"/>
<path d="M59.8912 74.9336C59.8912 63.2909 70.6006 56.501 79.9409 52.7879C74.9529 49.0843 71.2461 42.7976 71.2461 37.0333C71.2461 24.5739 83.8726 20.6519 91.4034 20.6519C101.8 20.6519 109.654 28.0686 109.654 36.4065C109.654 44.7444 101.908 51.7528 94.0637 54.9436L107.962 70.0809L117.087 58.0299C117.83 57.0043 118.681 56.6909 119.737 56.6909H126.309C128.109 56.6909 128.745 57.821 127.689 59.2645L114.006 76.6714L118.994 82.1319C121.644 84.7054 123.659 85.7406 126.74 85.7406C128.647 85.7406 131.297 85.2278 133.312 84.0882C134.584 83.3665 135.65 83.3664 136.285 84.8099L138.085 88.2096C138.613 89.3397 138.408 90.3748 137.449 91.296C134.691 93.4612 131.082 94.9996 126.202 94.9996C119.727 94.9996 115.59 92.3216 111.453 88.2001L108.372 85.0093C104.128 91.4954 95.0026 94.9996 85.9949 94.9996C71.7841 94.9996 59.9009 87.6873 59.9009 74.9146L59.8912 74.9336ZM102.113 78.1244L85.5646 59.6823C79.1976 61.6386 70.8158 66.5862 70.8158 74.5157C70.8158 81.4197 77.6034 86.3578 86.0927 86.3578C92.8803 86.3578 97.9758 83.3664 102.113 78.1149V78.1244ZM99.3549 36.9288C99.3549 33.0163 96.1762 28.8948 90.6601 28.8948C86.1025 28.8948 82.0632 31.8862 82.0632 37.4416C82.0632 41.4586 84.4985 45.789 88.5378 49.2837C96.0687 45.5801 99.3549 40.9363 99.3549 36.9288Z" fill="white"/>
<path d="M146.63 94.9907V28.1354H164.994V33.2657C169.997 28.9873 176.079 26.848 183.228 26.848C187.787 26.848 191.851 27.7283 195.431 29.4795C199.001 31.2306 201.957 33.6917 204.281 36.8531C207.139 33.6065 210.541 31.1265 214.467 29.4132C218.402 27.6999 222.734 26.848 227.47 26.848C232.652 26.848 237.23 27.9839 241.216 30.2462C245.191 32.5179 248.325 35.6321 250.6 39.6171C252.874 43.5926 254.021 48.1929 254.021 53.4179V95.0001H235.658V56.1061C235.658 51.7425 234.471 48.297 232.108 45.7792C229.735 43.2519 226.541 41.993 222.526 41.993C219.757 41.993 217.235 42.5325 214.951 43.5926C212.677 44.6622 210.729 46.3566 209.117 48.6662C209.206 49.4329 209.295 50.2091 209.384 50.9758C209.473 51.7425 209.522 52.5565 209.522 53.4179V95.0001H191.159V56.1061C191.159 51.7425 189.972 48.297 187.609 45.7792C185.236 43.2519 182.042 41.993 178.027 41.993C175.258 41.993 172.776 42.5041 170.591 43.5358C168.395 44.5581 166.546 46.101 165.023 48.155V95.0001H146.66L146.63 94.9907Z" fill="white"/>
<path d="M281.633 94.9999L262.282 28.9131H279.888L291.447 71.5271L305.425 28.9131H320.88L334.719 71.6581L346.278 28.9131H363.478L344.127 94.9999H326.382L312.939 52.7601L299.368 94.9999H281.623H281.633Z" fill="white"/>
<path d="M408.848 94.9998C401.909 94.9998 395.638 93.4364 390.028 90.3193C384.417 87.2021 379.977 82.9724 376.68 77.6397C373.382 72.3069 371.738 66.3892 371.738 59.8863C371.738 53.3835 373.382 47.341 376.68 42.0083C379.968 36.6756 384.417 32.4746 390.028 29.3959C395.629 26.3171 401.909 24.7825 408.848 24.7825C415.788 24.7825 422.196 26.3267 427.797 29.3959C433.398 32.4746 437.847 36.6756 441.145 42.0083C444.432 47.341 446.086 53.2972 446.086 59.8863C446.086 66.4755 444.442 72.3069 441.145 77.6397C437.857 82.9724 433.408 87.1925 427.797 90.3193C422.186 93.446 415.877 94.9998 408.848 94.9998ZM408.848 79.5291C412.5 79.5291 415.788 78.6371 418.721 76.8628C421.655 75.0884 423.968 72.7194 425.661 69.7749C427.354 66.8304 428.201 63.4926 428.201 59.7616C428.201 56.0307 427.334 52.8272 425.602 49.8827C423.87 46.9382 421.556 44.5979 418.662 42.8619C415.768 41.1259 412.549 40.2627 408.986 40.2627C405.423 40.2627 402.047 41.1355 399.113 42.8619C396.18 44.5979 393.867 46.9382 392.174 49.8827C390.48 52.8272 389.634 56.1266 389.634 59.7616C389.634 63.3967 390.48 66.8304 392.174 69.7749C393.867 72.7194 396.15 75.0884 399.044 76.8628C401.938 78.6371 405.206 79.5291 408.848 79.5291Z" fill="white"/>
<path d="M454.347 28.385H473.117V35.7961C475.294 32.9014 477.992 30.6856 481.213 29.1487C484.433 27.6118 488.034 26.848 492.027 26.848C495.568 26.9329 498.147 27.4044 499.782 28.253V43.7258C498.327 43.1318 496.812 42.6792 495.227 42.3869C493.642 42.0851 491.987 41.9437 490.262 41.9437C486.63 41.9437 483.319 42.7923 480.33 44.4989C477.34 46.2056 474.933 48.6288 473.117 51.7875V95.0001H454.347V28.385Z" fill="white"/>
<path d="M508.053 94.9908V7.0227L526.628 4.13059V57.0412L557.278 29.5199H578.294L544.794 59.4328L580.325 95H556.458L526.618 65.2169V95H508.043L508.053 94.9908Z" fill="white"/>
<path d="M621.208 94.9998C614.809 94.9998 608.804 94.1941 603.184 92.5924C597.563 90.9906 592.7 88.7175 588.586 85.7634L597.907 73.8032C602.021 76.4024 605.974 78.359 609.765 79.6538C613.556 80.9582 617.326 81.6008 621.067 81.6008C625.272 81.6008 628.629 80.9294 631.146 79.5867C633.653 78.2439 634.917 76.4887 634.917 74.3211C634.917 72.5851 634.209 71.204 632.794 70.1585C631.378 69.1227 629.114 68.3841 626.01 67.9525L612.302 66.0055C605.266 64.9697 599.898 62.7733 596.198 59.4355C592.498 56.0978 590.648 51.6954 590.648 46.238C590.648 41.8165 591.861 37.9992 594.277 34.7957C596.694 31.5922 600.151 29.1177 604.629 27.3817C609.108 25.6457 614.314 24.7825 620.258 24.7825C625.555 24.7825 630.701 25.473 635.675 26.8638C640.659 28.2545 645.339 30.3742 649.727 33.2323L640.679 44.8089C636.746 42.4687 632.976 40.7806 629.377 39.7352C625.768 38.6993 622.179 38.1718 618.62 38.1718C615.335 38.1718 612.636 38.7761 610.533 39.9941C608.43 41.2122 607.379 42.814 607.379 44.8089C607.379 46.6313 608.107 48.0604 609.573 49.0962C611.028 50.1321 613.495 50.9185 616.973 51.4365L630.681 53.2588C637.808 54.2179 643.247 56.3759 646.987 59.7616C650.737 63.1473 652.608 67.4346 652.608 72.633C652.608 76.9683 651.233 80.8048 648.493 84.1425C645.754 87.4803 642.023 90.1274 637.323 92.0744C632.612 94.0215 627.254 94.9998 621.219 94.9998H621.208Z" fill="white"/>
</svg>
