<svg width="153" height="155" viewBox="0 0 153 155" fill="none" xmlns="http://www.w3.org/2000/svg">
<path d="M11 71C11 31.7878 42.7878 0 82 0C121.212 0 153 31.7878 153 71C153 110.212 121.212 142 82 142C42.7878 142 11 110.212 11 71Z" fill="#EFEFEF"/>
<path d="M108.333 96.167C108.333 68.4608 85.8731 46.0002 58.167 46C30.4607 46 8 68.4607 8 96.167C8.00017 123.873 30.4608 146.333 58.167 146.333C85.873 146.333 108.333 123.873 108.333 96.167ZM86.667 96.167C86.667 80.427 73.9069 67.6673 58.167 67.667C42.4269 67.667 29.667 80.4269 29.667 96.167C29.6672 111.907 42.427 124.667 58.167 124.667C73.9068 124.667 86.6668 111.907 86.667 96.167ZM65 96.167C65 92.393 61.94 89.333 58.166 89.333C54.3922 89.3332 51.333 92.3932 51.333 96.167C51.3332 99.9406 54.3924 103 58.166 103C61.9398 103 64.9998 99.9408 65 96.167ZM73 96.167C72.9998 104.359 66.3581 111 58.166 111C49.9741 111 43.3332 104.359 43.333 96.167C43.333 87.9749 49.9739 81.3332 58.166 81.333C66.3582 81.333 73 87.9748 73 96.167ZM94.667 96.167C94.6668 116.325 78.325 132.667 58.167 132.667C38.0087 132.667 21.6672 116.325 21.667 96.167C21.667 76.0086 38.0086 59.667 58.167 59.667C78.3252 59.6673 94.667 76.0088 94.667 96.167ZM116.333 96.167C116.333 128.291 90.2913 154.333 58.167 154.333C26.0425 154.333 0.000173176 128.291 0 96.167C0 64.0424 26.0424 38 58.167 38C90.2914 38.0002 116.333 64.0425 116.333 96.167Z" fill="#0038FF"/>
</svg>
