<svg width="142" height="147" viewBox="0 0 142 147" fill="none" xmlns="http://www.w3.org/2000/svg">
<path d="M0 75.9998C0 36.7876 31.7878 4.99981 71 4.99981C110.212 4.99981 142 36.7876 142 75.9998C142 115.212 110.212 147 71 147C31.7878 147 0 115.212 0 75.9998Z" fill="#EFEFEF"/>
<path d="M71.5321 0.00566866C73.0479 -0.0487375 74.5526 0.28924 75.8993 0.987114C77.2459 1.68499 78.3891 2.71933 79.2186 3.98907L79.2655 4.06133L104.639 44.7947C105.507 46.0863 106.019 47.5855 106.119 49.1404C106.222 50.7431 105.885 52.3435 105.144 53.7684C104.403 55.1932 103.287 56.3886 101.916 57.2244C100.545 58.0603 98.9701 58.5049 97.3641 58.5106H46.4256C44.8605 58.5663 43.3073 58.2051 41.9276 57.4598C40.4991 56.6881 39.3117 55.536 38.4969 54.1316C37.6822 52.7273 37.2723 51.1249 37.3114 49.5018C37.3505 47.8785 37.8371 46.297 38.7186 44.9334L64.2235 4.40215C64.9566 3.13214 65.9963 2.06479 67.2479 1.29766C68.5409 0.505199 70.0166 0.0601394 71.5321 0.00566866ZM71.8192 8.00079C71.6811 8.00579 71.5465 8.0458 71.4286 8.11797C71.3105 8.19035 71.2126 8.2928 71.1454 8.41387C71.11 8.47756 71.0729 8.54069 71.034 8.60235L45.4637 49.2361L45.4374 49.2772C45.3569 49.4016 45.3121 49.546 45.3085 49.6941C45.3049 49.8423 45.3425 49.9888 45.4169 50.117C45.4912 50.2452 45.5999 50.3502 45.7303 50.4207C45.8608 50.4912 46.0081 50.5245 46.1561 50.5164C46.2286 50.5125 46.3013 50.5106 46.3739 50.5106H97.3368C97.4832 50.51 97.6268 50.4695 97.7518 50.3934C97.877 50.317 97.9791 50.2071 98.0467 50.077C98.1142 49.947 98.145 49.8012 98.1356 49.6551C98.1262 49.5088 98.0768 49.3672 97.993 49.2469C97.9541 49.191 97.9167 49.1338 97.8807 49.076L72.5135 8.3543C72.4384 8.24314 72.3378 8.15147 72.2186 8.08965C72.0957 8.02593 71.9576 7.99582 71.8192 8.00079Z" fill="#0038FF"/>
<path d="M54.0396 88.8232C54.0393 87.2423 52.7572 85.9609 51.1763 85.9609H16.8628C15.2821 85.9611 14.0007 87.2425 14.0005 88.8232V123.137C14.0005 124.718 15.2819 126 16.8628 126H51.1763C52.7573 126 54.0396 124.718 54.0396 123.137V88.8232ZM62.0396 123.137C62.0396 129.136 57.1756 134 51.1763 134H16.8628C10.8637 134 6.00049 129.136 6.00049 123.137V88.8232C6.0007 82.8242 10.8638 77.9611 16.8628 77.9609H51.1763C57.1754 77.9609 62.0393 82.8241 62.0396 88.8232V123.137Z" fill="#0038FF"/>
<path d="M129.529 105.98C129.529 94.924 120.566 85.9609 109.51 85.9609C98.4535 85.9609 89.4904 94.924 89.4904 105.98C89.4904 117.037 98.4535 126 109.51 126C120.566 126 129.529 117.037 129.529 105.98ZM137.529 105.98C137.529 121.455 124.985 134 109.51 134C94.0352 134 81.4904 121.455 81.4904 105.98C81.4904 90.5057 94.0352 77.9609 109.51 77.9609C124.985 77.9609 137.529 90.5057 137.529 105.98Z" fill="#0038FF"/>
</svg>
