<svg width="159" height="159" viewBox="0 0 159 159" fill="none" xmlns="http://www.w3.org/2000/svg">
<path d="M0 71C0 31.7878 31.7878 0 71 0C110.212 0 142 31.7878 142 71C142 110.212 110.212 142 71 142C31.7878 142 0 110.212 0 71Z" fill="#EFEFEF"/>
<path d="M151.5 79.3057C151.5 71.3997 148.363 63.8179 142.778 58.2285C137.194 52.6392 129.62 49.5 121.725 49.5C116.752 49.5 112.715 50.2035 108.921 51.8574C105.104 53.5213 101.314 56.2429 96.9756 60.585C96.3191 61.2419 95.4287 61.6113 94.5 61.6113C93.5713 61.6113 92.6809 61.2419 92.0244 60.585C87.6863 56.2429 83.8959 53.5213 80.0791 51.8574C76.2851 50.2035 72.2482 49.5 67.2754 49.5C59.3796 49.5 51.8058 52.6392 46.2217 58.2285C40.6375 63.8179 37.5 71.3997 37.5 79.3057C37.5 91.6487 45.5294 101.335 54.584 110.096L52.1348 112.625L52.1504 112.611L54.584 110.096C54.5982 110.109 54.612 110.124 54.626 110.138L94.5 150.048L134.399 110.112C143.421 101.264 151.5 91.5849 151.5 79.3057ZM158.5 79.3057C158.5 94.7607 148.308 106.276 139.301 115.11L96.9756 157.474C96.3191 158.131 95.4287 158.5 94.5 158.5C93.5713 158.5 92.6809 158.131 92.0244 157.474L49.6738 115.085C40.5897 106.29 30.5 94.7936 30.5 79.3057C30.5 69.5454 34.3734 60.1839 41.2695 53.2812C48.1659 46.3785 57.521 42.5 67.2754 42.5C72.9502 42.5 77.9884 43.3107 82.876 45.4414C86.887 47.19 90.6483 49.7637 94.5 53.2705C98.3517 49.7637 102.113 47.19 106.124 45.4414C111.012 43.3107 116.05 42.5 121.725 42.5C131.479 42.5 140.834 46.3785 147.73 53.2812C154.627 60.1839 158.5 69.5454 158.5 79.3057Z" fill="#0038FF"/>
<path d="M118.779 75.7656C123.882 75.7656 128.793 77.6949 132.557 81.1641L150.359 97.415C151.787 98.7182 151.888 100.932 150.585 102.359C149.282 103.787 147.068 103.888 145.641 102.585L127.825 86.3232C127.821 86.3194 127.817 86.3153 127.812 86.3115L130.185 83.7383L130.237 83.6807L127.812 86.3115C125.331 84.0243 122.11 82.7656 118.779 82.7656C115.448 82.7656 112.228 84.0243 109.746 86.3115L97.3018 97.9141L97.2715 97.9414C90.666 103.957 80.6456 103.751 74.374 97.3896C72.8261 95.8287 71.6001 93.9757 70.7646 91.9375C69.9293 89.8994 69.5 87.7152 69.5 85.5107C69.5 83.3063 69.9293 81.122 70.7646 79.084C71.6001 77.0459 72.8262 75.1927 74.374 73.6318L92.1807 55.5449C93.5368 54.1675 95.7524 54.1498 97.1299 55.5059C98.5072 56.8618 98.5246 59.0776 97.1689 60.4551L79.3535 78.5518L79.3447 78.5605L76.8848 76.1211L76.792 76.0293L79.3447 78.5605C78.4471 79.4658 77.7314 80.5459 77.2422 81.7393C76.753 82.9328 76.5 84.2147 76.5 85.5107C76.5 86.8068 76.753 88.0887 77.2422 89.2822C77.7313 90.4756 78.4462 91.5557 79.3438 92.4609L76.7949 94.9883L76.8594 94.9258L79.3438 92.4609L79.3535 92.4707C82.9531 96.1267 88.6947 96.2844 92.5586 92.7656L105.002 81.1641C108.766 77.695 113.677 75.7656 118.779 75.7656Z" fill="#0038FF"/>
<path d="M116.525 104.525C117.892 103.159 120.108 103.159 121.475 104.525L133.475 116.525C134.841 117.892 134.841 120.108 133.475 121.475C132.108 122.841 129.892 122.841 128.525 121.475L116.525 109.475C115.159 108.108 115.159 105.892 116.525 104.525Z" fill="#0038FF"/>
<path d="M98.5254 122.525C99.8922 121.159 102.108 121.159 103.475 122.525L115.475 134.525C116.841 135.892 116.841 138.108 115.475 139.475C114.108 140.841 111.892 140.841 110.525 139.475L98.5254 127.475C97.1585 126.108 97.1585 123.892 98.5254 122.525Z" fill="#0038FF"/>
</svg>
